<?xml version="1.0" standalone="no"?>
<!DOCTYPE svg PUBLIC "-//W3C//DTD SVG 20010904//EN"
 "http://www.w3.org/TR/2001/REC-SVG-20010904/DTD/svg10.dtd">
<svg version="1.0" xmlns="http://www.w3.org/2000/svg"
 width="512.000000pt" height="512.000000pt" viewBox="0 0 512.000000 512.000000"
 preserveAspectRatio="xMidYMid meet">
<metadata>
Created by potrace 1.14, written by Peter Selinger 2001-2017
</metadata>
<g transform="translate(0.000000,512.000000) scale(0.100000,-0.100000)"
fill="#000000" stroke="none">
<path d="M2668 4745 c-3 -3 -31 -8 -63 -11 -57 -5 -281 -74 -320 -99 -11 -6
-38 -18 -60 -25 -22 -7 -51 -18 -65 -26 -40 -20 -87 -33 -107 -28 -13 4 -22
-4 -32 -28 -21 -48 -43 -66 -95 -73 -30 -5 -43 -11 -39 -19 4 -6 -1 -5 -10 3
-9 7 -17 9 -17 4 0 -6 -21 -21 -47 -34 -27 -13 -57 -32 -67 -41 -11 -10 -24
-18 -28 -18 -5 0 -6 -4 -3 -10 3 -5 -5 -15 -19 -21 -14 -7 -24 -15 -21 -19 2
-3 -7 -14 -21 -24 -13 -11 -24 -23 -24 -28 0 -9 -32 -49 -102 -131 -16 -17
-28 -38 -28 -45 0 -8 -9 -27 -21 -43 -11 -16 -18 -29 -14 -29 3 0 -1 -13 -9
-29 -8 -15 -17 -40 -20 -54 -2 -15 -8 -32 -11 -37 -4 -6 -9 -26 -12 -43 -3
-18 -13 -63 -23 -102 -35 -132 -43 -204 -37 -314 6 -105 39 -227 58 -216 4 3
5 -10 2 -29 -3 -19 -1 -36 6 -40 6 -4 11 -15 11 -26 0 -10 7 -20 15 -24 8 -3
15 -11 15 -18 0 -7 23 -32 50 -56 36 -31 50 -50 50 -69 0 -27 32 -87 54 -100
23 -15 67 -81 57 -87 -5 -3 -9 -27 -9 -54 0 -35 5 -53 21 -70 17 -19 22 -36
22 -82 0 -55 1 -58 18 -43 9 9 17 13 17 9 0 -4 9 -60 20 -123 26 -144 62 -238
128 -334 l50 -74 16 -203 16 -203 -60 -70 c-79 -92 -105 -132 -126 -201 -17
-56 -18 -57 -78 -78 -34 -13 -160 -61 -281 -108 -121 -47 -308 -111 -415 -143
-225 -67 -481 -181 -537 -240 -70 -75 -131 -148 -160 -190 -65 -95 -164 -300
-203 -419 -22 -68 -40 -125 -40 -127 0 -1 1136 -3 2525 -3 l2525 0 0 203 0
202 -80 63 c-92 72 -176 117 -315 167 -160 58 -311 132 -404 199 -47 34 -156
106 -241 160 -85 54 -198 129 -250 167 -110 79 -206 138 -264 159 -43 16 -38
6 -183 352 -9 21 -19 35 -23 33 -5 -3 -8 -53 -7 -113 1 -102 0 -110 -31 -172
-41 -82 -139 -215 -228 -310 -121 -128 -305 -257 -569 -400 -44 -23 -123 -67
-177 -96 -102 -57 -101 -57 -166 -20 -20 12 -23 22 -26 112 -2 57 -12 122 -22
154 -10 30 -18 57 -19 60 -1 3 -7 25 -14 50 -6 25 -17 56 -23 70 -35 80 -68
296 -74 474 -2 87 -7 162 -9 166 -3 4 1 13 9 19 23 19 70 -30 100 -105 22 -54
29 -93 36 -208 12 -183 52 -336 99 -378 62 -55 161 -17 102 39 -42 41 -141
241 -141 287 0 42 19 99 37 109 7 4 13 14 13 21 0 16 50 51 68 48 6 -2 12 1
12 6 0 5 42 9 93 8 196 -1 315 14 407 51 20 8 20 8 55 18 69 18 124 52 186
114 57 57 101 109 255 301 18 21 35 36 38 33 3 -4 6 11 6 31 0 21 14 72 31
114 31 78 83 294 99 412 5 36 12 85 15 110 4 25 8 67 10 93 4 60 20 80 57 75
16 -3 32 0 37 6 5 6 32 83 60 171 36 113 57 164 71 173 11 7 20 17 20 23 0 6
-7 3 -16 -5 -8 -9 -17 -16 -18 -16 -2 0 -4 35 -4 78 -1 42 -4 104 -6 137 -3
33 -7 107 -10 165 -5 125 -16 210 -26 210 -4 0 -8 10 -8 23 0 29 -39 115 -88
197 -22 36 -54 95 -71 131 -18 36 -39 72 -48 79 -8 7 -15 17 -15 22 0 6 -10
24 -22 41 -13 18 -21 34 -20 35 2 2 -36 36 -85 74 -48 39 -89 75 -91 79 -2 5
-10 9 -18 9 -8 0 -26 11 -40 25 -13 13 -28 25 -32 25 -16 2 -89 38 -102 51
-25 24 -88 69 -96 69 -23 0 -94 35 -91 44 3 7 -18 11 -62 12 -36 0 -80 4 -97
7 -17 4 -33 4 -36 2z m-683 -839 c17 -12 21 -12 31 2 7 10 17 13 30 7 10 -4
31 -7 47 -6 15 2 27 -2 27 -8 0 -6 7 -11 15 -11 8 0 23 -4 33 -9 61 -34 433
-63 527 -41 27 6 53 16 56 22 8 12 69 -8 69 -22 0 -4 14 -7 31 -8 32 -1 62
-19 54 -32 -2 -4 46 -6 107 -5 83 3 120 0 140 -11 15 -8 28 -18 28 -23 0 -4
35 -26 78 -47 42 -22 79 -42 80 -47 2 -4 8 -5 13 -1 5 3 9 0 9 -5 0 -6 6 -11
14 -11 8 0 17 -9 21 -19 3 -11 12 -22 20 -25 8 -3 17 -26 21 -55 4 -29 11 -48
16 -45 6 4 6 -1 0 -13 -11 -20 -2 -169 18 -308 17 -117 17 -349 1 -369 -11
-13 -14 -62 -16 -214 -2 -152 -6 -208 -19 -245 -9 -26 -16 -57 -16 -69 0 -31
-46 -141 -79 -190 -34 -50 -167 -197 -226 -250 -43 -38 -105 -60 -105 -36 0 9
-3 10 -8 2 -4 -6 -28 -21 -54 -33 -26 -11 -60 -33 -75 -47 -47 -43 -82 -56
-202 -71 -133 -17 -222 -7 -284 30 -40 24 -167 145 -167 158 0 5 -9 9 -19 9
-10 0 -41 20 -68 44 -27 25 -61 48 -75 51 -15 4 -34 14 -43 23 -21 22 -85 121
-85 133 0 5 -4 9 -9 9 -8 0 -22 37 -19 50 1 3 -5 16 -12 30 -21 39 -32 88 -45
203 -3 33 -10 69 -14 80 -5 12 -9 26 -9 31 0 5 -5 12 -11 15 -9 6 -19 59 -51
281 -5 36 -8 82 -7 103 1 20 0 37 -3 37 -3 0 -6 26 -8 59 -1 45 2 62 15 72 14
12 16 12 11 -1 -3 -8 -2 -24 3 -35 7 -18 8 -17 8 6 1 34 21 89 31 89 5 0 12
-5 15 -10 4 -6 10 -8 15 -5 4 3 10 -6 14 -18 7 -29 46 -48 83 -42 66 11 93 13
93 5 0 -4 10 -6 23 -6 12 1 30 -2 40 -6 12 -6 17 -5 17 5 0 15 29 27 66 27 12
0 21 6 21 13 -1 20 15 77 22 77 3 0 28 -8 55 -18 l48 -19 -27 -21 -28 -22 29
0 c74 0 74 -1 69 -114 -4 -99 -11 -129 -63 -261 -18 -45 -19 -54 -7 -83 8 -17
18 -32 23 -32 5 0 35 -23 66 -50 46 -40 61 -48 72 -39 10 8 22 8 46 0 30 -11
35 -10 57 16 23 26 23 28 5 31 -10 2 -23 7 -27 12 -5 4 -21 3 -37 -3 -34 -13
-52 -1 -79 52 -55 108 -50 102 -77 85 -23 -16 -24 -16 -24 10 0 14 13 40 30
59 17 19 30 38 30 41 0 4 11 23 25 44 22 35 24 45 23 167 -1 188 -28 295 -75
295 -7 0 -13 4 -13 9 0 14 -64 34 -68 22 -2 -6 -21 1 -43 14 -32 21 -51 25
-113 25 -44 0 -78 5 -82 11 -3 6 -19 9 -35 5 -16 -3 -29 -1 -29 4 0 13 -66 24
-87 14 -35 -15 -63 -10 -78 13 -9 13 -12 23 -8 23 5 0 2 4 -4 8 -7 4 -15 26
-18 47 -2 22 -9 63 -15 90 -16 84 -7 135 38 224 34 67 137 104 187 67z m135
-605 c89 -16 95 -18 81 -35 -8 -10 -5 -16 15 -25 41 -18 20 -25 -62 -22 -71 2
-150 -16 -178 -41 -20 -17 -26 -7 -10 17 9 14 13 25 9 25 -17 0 -67 -44 -82
-73 l-17 -32 -11 45 c-8 30 -9 49 -2 58 7 9 5 16 -7 25 -16 12 -15 14 8 27 14
7 26 17 26 22 0 26 109 30 230 9z m228 -119 c26 -19 47 -64 34 -76 -2 -3 -15
8 -29 24 -13 16 -33 32 -43 35 -11 4 -24 15 -30 25 -8 15 -6 18 14 16 13 -2
37 -13 54 -24z m-201 -18 c-3 -3 -12 -4 -19 -1 -8 3 -5 6 6 6 11 1 17 -2 13
-5z m-103 -31 c3 -10 9 -24 12 -30 8 -17 -17 -16 -41 1 -11 8 -16 19 -12 30 8
21 33 21 41 -1z m311 -503 c3 -5 2 -10 -4 -10 -5 0 -13 5 -16 10 -3 6 -2 10 4
10 5 0 13 -4 16 -10z m-290 -1846 c7 -17 16 -42 20 -55 l7 -24 -27 25 c-45 42
-67 78 -60 101 7 20 7 20 27 2 11 -9 25 -32 33 -49z m55 -194 c5 0 18 -13 30
-30 28 -39 5 -41 -39 -4 -33 27 -41 50 -15 40 9 -3 19 -6 24 -6z m-176 -166
c19 -18 21 -55 4 -72 -7 -7 -24 -12 -38 -12 -51 0 -69 55 -28 84 28 20 43 20
62 0z m812 -233 c-9 -15 -59 -14 -74 1 -15 15 -15 51 0 66 8 8 20 3 46 -22 19
-19 31 -39 28 -45z"/>
<path d="M3145 3494 c-16 -8 -44 -11 -62 -8 -21 3 -47 -2 -72 -15 -22 -10 -64
-24 -93 -31 -29 -7 -57 -16 -63 -20 -5 -4 -28 -13 -50 -20 -53 -17 -145 -72
-145 -87 0 -21 31 -45 44 -34 17 14 253 89 349 110 66 15 81 16 103 4 15 -7
43 -13 63 -13 51 0 84 -20 94 -57 5 -17 17 -33 27 -36 16 -4 18 0 13 32 -11
68 -105 171 -157 171 -8 0 -16 4 -18 8 -1 5 -16 3 -33 -4z"/>
<path d="M2818 3264 c-28 -14 -34 -25 -22 -37 7 -7 64 33 64 45 0 11 -11 9
-42 -8z"/>
<path d="M2935 3241 c-16 -4 -39 -12 -51 -19 -12 -6 -25 -7 -35 -1 -20 13 -35
11 -21 -3 9 -9 7 -17 -9 -34 -24 -26 -10 -26 38 -1 18 9 36 17 40 17 13 0 42
-80 36 -98 -5 -14 -3 -15 8 -4 7 6 34 12 60 12 43 0 49 3 69 35 25 40 46 41
43 2 -1 -18 5 -27 20 -32 36 -11 71 -15 88 -9 15 4 15 8 -3 45 -10 22 -27 42
-36 45 -9 3 -39 14 -67 25 -59 22 -138 31 -180 20z"/>
<path d="M2643 2660 c-13 -5 -23 -16 -23 -24 0 -20 36 -26 57 -10 10 7 26 14
37 14 15 0 16 3 6 15 -14 17 -43 18 -77 5z"/>
<path d="M2170 2375 c0 -7 70 -93 104 -129 29 -29 75 -42 137 -37 45 3 50 5
30 13 -19 6 -22 11 -13 20 9 9 8 16 -4 29 -32 35 -11 49 63 44 82 -6 61 -6
218 -1 149 5 186 1 178 -20 -3 -7 -9 -12 -13 -9 -5 3 -12 -5 -16 -17 l-7 -22
-19 23 c-21 27 -20 27 -42 -16 -19 -38 -32 -42 -42 -11 l-6 21 -18 -22 c-13
-19 -29 -24 -83 -28 -63 -5 -67 -4 -76 18 -9 22 -10 23 -10 3 -1 -12 -11 -26
-23 -31 -29 -14 165 -7 232 8 56 12 192 78 185 89 -3 5 11 14 30 21 52 19 44
33 -12 23 -27 -5 -186 -8 -355 -6 -252 2 -315 5 -350 18 -57 21 -88 28 -88 19z
m230 -79 c0 -29 -19 -44 -31 -25 -16 25 -10 49 11 49 15 0 20 -7 20 -24z"/>
<path d="M2475 2210 c3 -5 10 -10 16 -10 5 0 9 5 9 10 0 6 -7 10 -16 10 -8 0
-12 -4 -9 -10z"/>
</g>
</svg>
