<svg xmlns="http://www.w3.org/2000/svg" viewBox="0 0 200 200">
<mask id="main-mask">
  <rect x="0" y="0" width="200" height="200" fill="white"/>
  <path stroke="black" fill="white" d="M112.98 57.376 183 53V43c0-11.046-8.954-20-20-20H73l-2.5-4.33c-1.112-1.925-3.889-1.925-5 0L63 23l-2.5-4.33c-1.111-1.925-3.889-1.925-5 0L53 23l-2.5-4.33c-1.111-1.925-3.889-1.925-5 0L43 23q-.032.002-.065.003l-4.142-4.141c-1.57-1.571-4.252-.853-4.828 1.294l-1.369 5.104-5.192-1.392c-2.148-.575-4.111 1.389-3.535 3.536l1.39 5.193-5.102 1.367c-2.148.576-2.867 3.259-1.296 4.83l4.142 4.142q-.002.031-.003.064l-4.33 2.5c-1.925 1.111-1.925 3.889 0 5L23 53l-4.33 2.5c-1.925 1.111-1.925 3.889 0 5L23 63l-4.33 2.5c-1.925 1.111-1.925 3.889 0 5L23 73l-4.33 2.5c-1.925 1.111-1.925 3.889 0 5L23 83l-4.33 2.5c-1.925 1.111-1.925 3.889 0 5L23 93l-4.33 2.5c-1.925 1.111-1.925 3.889 0 5L23 103l-4.33 2.5c-1.925 1.111-1.925 3.889 0 5L23 113l-4.33 2.5c-1.925 1.111-1.925 3.889 0 5L23 123l-4.33 2.5c-1.925 1.111-1.925 3.889 0 5L23 133l-4.33 2.5c-1.925 1.111-1.925 3.889 0 5L23 143l-4.33 2.5c-1.925 1.111-1.925 3.889 0 5L23 153l-4.33 2.5c-1.925 1.111-1.925 3.889 0 5L23 163c0 11.046 8.954 20 20 20h120c11.046 0 20-8.954 20-20V83l-70.02-4.376A10.645 10.645 0 0 1 103 68c0-5.621 4.37-10.273 9.98-10.624"></path>
  <path fill="black" d="M63 55.5a2.5 2.5 0 0 1-2.5-2.5c0-4.136-3.364-7.5-7.5-7.5s-7.5 3.364-7.5 7.5a2.5 2.5 0 1 1-5 0c0-6.893 5.607-12.5 12.5-12.5S65.5 46.107 65.5 53a2.5 2.5 0 0 1-2.5 2.5"></path>
  <path fill="black" d="M103 183h60c11.046 0 20-8.954 20-20V93h-60c-11.046 0-20 8.954-20 20z"></path>
  <path fill="black" d="M 113 72 M 183 61.611 c -0.012 0 -0.022 -0.006 -0.034 -0.005 c -3.09 0.105 -4.552 3.196 -5.842 5.923 c -1.346 2.85 -2.387 4.703 -4.093 4.647 c -1.889 -0.068 -2.969 -2.202 -4.113 -4.46 c -1.314 -2.594 -2.814 -5.536 -5.963 -5.426 c -3.046 0.104 -4.513 2.794 -5.807 5.167 c -1.377 2.528 -2.314 4.065 -4.121 3.994 c -1.927 -0.07 -2.951 -1.805 -4.136 -3.813 c -1.321 -2.236 -2.848 -4.75 -5.936 -4.664 c -2.994 0.103 -4.465 2.385 -5.763 4.4 c -1.373 2.13 -2.335 3.428 -4.165 3.351 c -1.973 -0.07 -2.992 -1.51 -4.171 -3.177 c -1.324 -1.873 -2.816 -3.993 -5.895 -3.89 c -2.928 0.1 -4.399 1.97 -5.696 3.618 c -1.232 1.564 -2.194 2.802 -4.229 2.724 a 1 1 0 0 0 -0.072 2 c 3.017 0.101 4.545 -1.8 5.872 -3.487 c 1.177 -1.496 2.193 -2.787 4.193 -2.855 c 1.926 -0.082 2.829 1.115 4.195 3.045 c 1.297 1.834 2.769 3.914 5.731 4.021 c 3.103 0.104 4.596 -2.215 5.918 -4.267 c 1.182 -1.834 2.202 -3.417 4.15 -3.484 c 1.793 -0.067 2.769 1.35 4.145 3.681 c 1.297 2.197 2.766 4.686 5.787 4.796 c 3.125 0.108 4.634 -2.62 5.949 -5.035 c 1.139 -2.088 2.214 -4.06 4.119 -4.126 c 1.793 -0.042 2.728 1.595 4.111 4.33 c 1.292 2.553 2.757 5.445 5.825 5.556 l 0.169 0.003 c 3.064 0 4.518 -3.075 5.805 -5.794 c 1.139 -2.41 2.217 -4.68 4.067 -4.773 z"></path>
  <path fill="black" d="M143 41.75c-.16 0-.33-.02-.49-.05a2.5 2.5 0 0 1-.47-.14c-.15-.06-.29-.14-.431-.23-.13-.09-.259-.2-.38-.31-.109-.12-.219-.24-.309-.38s-.17-.28-.231-.43a2.6 2.6 0 0 1-.189-.96c0-.16.02-.33.05-.49s.08-.31.139-.47c.061-.15.141-.29.231-.43.09-.13.2-.26.309-.38.121-.11.25-.22.38-.31.141-.09.281-.17.431-.23s.31-.11.47-.14c.32-.07.65-.07.98 0 .159.03.32.08.47.14s.29.14.43.23c.13.09.259.2.38.31.11.12.22.25.31.38.09.14.17.28.23.43.06.16.11.31.14.47.029.16.05.33.05.49 0 .66-.271 1.31-.73 1.77-.121.11-.25.22-.38.31-.14.09-.281.17-.43.23a2.6 2.6 0 0 1-.96.19m20-1.25c-.66 0-1.3-.27-1.771-.73a4 4 0 0 1-.309-.38c-.09-.14-.17-.28-.231-.43a2.6 2.6 0 0 1-.189-.96c0-.66.27-1.3.729-1.77.121-.11.25-.22.38-.31.141-.09.281-.17.431-.23s.31-.11.47-.14c.32-.07.66-.07.98 0 .159.03.32.08.47.14s.29.14.43.23c.13.09.259.2.38.31.459.47.73 1.11.73 1.77 0 .16-.021.33-.05.49s-.08.32-.14.47c-.07.15-.14.29-.23.43-.09.13-.2.26-.31.38-.121.11-.25.22-.38.31-.14.09-.281.17-.43.23a2.6 2.6 0 0 1-.96.19"></path>
  <!-- <path stroke="black" fill="white" d="M99 52h84v34H99z"></path> -->
</mask>
<mask id="document-mask">
  <rect x="0" y="0" width="200" height="200" fill="white"/>
  <path fill="black" d="M103 183h60c11.046 0 20-8.954 20-20V93h-60c-11.046 0-20 8.954-20 20z"></path>
  <path fill="white" d="M 168.02 124 L 117.98 124 C 117.428 124 116.98 123.552 116.98 123 C 116.98 122.448 117.428 122 117.98 122 L 168.02 122 C 168.572 122 169.02 122.448 169.02 123 C 169.02 123.552 168.572 124 168.02 124 M 168.02 144 L 117.98 144 C 117.428 144 116.98 143.552 116.98 143 C 116.98 142.448 117.428 142 117.98 142 L 168.02 142 C 168.572 142 169.02 142.448 169.02 143 C 169.02 143.552 168.572 144 168.02 144 M 168.02 164 L 117.98 164 C 117.428 164 116.98 163.552 116.98 163 C 116.98 162.448 117.428 162 117.98 162 L 168.02 162 C 168.572 162 169.02 162.448 169.02 163 C 169.02 163.552 168.572 164 168.02 164 M 168.02 114.186 L 117.98 114.186 C 117.428 114.186 116.98 113.738 116.98 113.186 C 116.98 112.634 117.428 112.186 117.98 112.186 L 168.02 112.186 C 168.572 112.186 169.02 112.634 169.02 113.186 C 169.02 113.738 168.572 114.186 168.02 114.186 M 168.02 134 L 117.98 134 C 117.428 134 116.98 133.552 116.98 133 C 116.98 132.448 117.428 132 117.98 132 L 168.02 132 C 168.572 132 169.02 132.448 169.02 133 C 169.02 133.552 168.572 134 168.02 134 M 168.02 154 L 117.98 154 C 117.428 154 116.98 153.552 116.98 153 C 116.98 152.448 117.428 152 117.98 152 L 168.02 152 C 168.572 152 169.02 152.448 169.02 153 C 169.02 153.552 168.572 154 168.02 154"></path>
</mask>
<g fill="none" fill-rule="evenodd">
  <path fill="currentColor" mask="url(#main-mask)" d="M99 52h84v34H99z"></path>
  <path fill="currentColor" d="M23 163c-7.398 0-13.843-4.027-17.303-10A19.9 19.9 0 0 0 3 163c0 11.046 8.954 20 20 20h20v-20z"></path>
  <path fill="currentColor" mask="url(#main-mask)" d="M112.98 57.376 183 53V43c0-11.046-8.954-20-20-20H73l-2.5-4.33c-1.112-1.925-3.889-1.925-5 0L63 23l-2.5-4.33c-1.111-1.925-3.889-1.925-5 0L53 23l-2.5-4.33c-1.111-1.925-3.889-1.925-5 0L43 23q-.032.002-.065.003l-4.142-4.141c-1.57-1.571-4.252-.853-4.828 1.294l-1.369 5.104-5.192-1.392c-2.148-.575-4.111 1.389-3.535 3.536l1.39 5.193-5.102 1.367c-2.148.576-2.867 3.259-1.296 4.83l4.142 4.142q-.002.031-.003.064l-4.33 2.5c-1.925 1.111-1.925 3.889 0 5L23 53l-4.33 2.5c-1.925 1.111-1.925 3.889 0 5L23 63l-4.33 2.5c-1.925 1.111-1.925 3.889 0 5L23 73l-4.33 2.5c-1.925 1.111-1.925 3.889 0 5L23 83l-4.33 2.5c-1.925 1.111-1.925 3.889 0 5L23 93l-4.33 2.5c-1.925 1.111-1.925 3.889 0 5L23 103l-4.33 2.5c-1.925 1.111-1.925 3.889 0 5L23 113l-4.33 2.5c-1.925 1.111-1.925 3.889 0 5L23 123l-4.33 2.5c-1.925 1.111-1.925 3.889 0 5L23 133l-4.33 2.5c-1.925 1.111-1.925 3.889 0 5L23 143l-4.33 2.5c-1.925 1.111-1.925 3.889 0 5L23 153l-4.33 2.5c-1.925 1.111-1.925 3.889 0 5L23 163c0 11.046 8.954 20 20 20h120c11.046 0 20-8.954 20-20V83l-70.02-4.376A10.645 10.645 0 0 1 103 68c0-5.621 4.37-10.273 9.98-10.624"></path>
  <path fill="currentColor" mask="url(#document-mask)" d="M143 183h30v-40h-30z"></path>
  <path fill="currentColor" mask="url(#document-mask)" d="M193 158c-.219 0-.428.037-.639.064q-.055-.225-.116-.451A5 5 0 0 0 190.32 148a4.96 4.96 0 0 0-3.016 1.036 27 27 0 0 0-.335-.336 4.96 4.96 0 0 0 1.011-2.987 5 5 0 0 0-9.599-1.959c-.148-.042-.297-.077-.445-.115.027-.211.064-.42.064-.639a5 5 0 0 0-5-5 5 5 0 0 0-5 5c0 .219.037.428.064.639-.148.038-.297.073-.445.115a4.998 4.998 0 0 0-9.599 1.959c0 1.125.384 2.151 1.011 2.987-3.717 3.632-6.031 8.693-6.031 14.3 0 11.046 8.954 20 20 20 9.339 0 17.16-6.41 19.361-15.064.211.027.42.064.639.064a5 5 0 0 0 5-5 5 5 0 0 0-5-5"></path>
  <path fill="currentColor" mask="url(#document-mask)" d="M153 123h30v-20h-30z"></path>
  <path fill="currentColor" mask="url(#document-mask)" d="M193 115.5a2.5 2.5 0 1 0 0-5c-.109 0-.214.019-.319.032q-.028-.113-.058-.225a2.501 2.501 0 0 0-.963-4.807c-.569 0-1.088.197-1.508.518a7 7 0 0 0-.168-.168c.314-.417.506-.931.506-1.494a2.5 2.5 0 0 0-4.8-.979A10 10 0 0 0 183 103c-5.522 0-10 4.478-10 10s4.478 10 10 10c.934 0 1.833-.138 2.69-.377a2.5 2.5 0 0 0 4.8-.979c0-.563-.192-1.077-.506-1.494q.085-.083.168-.168c.42.321.939.518 1.508.518a2.5 2.5 0 0 0 .963-4.807q.03-.112.058-.225c.105.013.21.032.319.032"></path>
  <path fill="currentColor" d="M 168.02 124 L 117.98 124 C 117.428 124 116.98 123.552 116.98 123 C 116.98 122.448 117.428 122 117.98 122 L 168.02 122 C 168.572 122 169.02 122.448 169.02 123 C 169.02 123.552 168.572 124 168.02 124 M 168.02 144 L 117.98 144 C 117.428 144 116.98 143.552 116.98 143 C 116.98 142.448 117.428 142 117.98 142 L 168.02 142 C 168.572 142 169.02 142.448 169.02 143 C 169.02 143.552 168.572 144 168.02 144 M 168.02 164 L 117.98 164 C 117.428 164 116.98 163.552 116.98 163 C 116.98 162.448 117.428 162 117.98 162 L 168.02 162 C 168.572 162 169.02 162.448 169.02 163 C 169.02 163.552 168.572 164 168.02 164 M 168.02 114.186 L 117.98 114.186 C 117.428 114.186 116.98 113.738 116.98 113.186 C 116.98 112.634 117.428 112.186 117.98 112.186 L 168.02 112.186 C 168.572 112.186 169.02 112.634 169.02 113.186 C 169.02 113.738 168.572 114.186 168.02 114.186 M 168.02 134 L 117.98 134 C 117.428 134 116.98 133.552 116.98 133 C 116.98 132.448 117.428 132 117.98 132 L 168.02 132 C 168.572 132 169.02 132.448 169.02 133 C 169.02 133.552 168.572 134 168.02 134 M 168.02 154 L 117.98 154 C 117.428 154 116.98 153.552 116.98 153 C 116.98 152.448 117.428 152 117.98 152 L 168.02 152 C 168.572 152 169.02 152.448 169.02 153 C 169.02 153.552 168.572 154 168.02 154"></path>
  <path fill="currentColor" d="M83 183h40v-40H83z"></path>
  <path fill="currentColor" d="M143 158c-.219 0-.428.037-.639.064-.038-.15-.074-.301-.116-.451A5 5 0 0 0 140.32 148a4.96 4.96 0 0 0-3.016 1.036 27 27 0 0 0-.335-.336 4.96 4.96 0 0 0 1.011-2.987 5 5 0 0 0-9.599-1.959c-.148-.042-.297-.077-.445-.115.027-.211.064-.42.064-.639a5 5 0 0 0-5-5 5 5 0 0 0-5 5c0 .219.037.428.064.639-.148.038-.297.073-.445.115a4.998 4.998 0 0 0-9.599 1.959c0 1.125.384 2.151 1.011 2.987-3.717 3.632-6.031 8.693-6.031 14.3 0 11.046 8.954 20 20 20 9.339 0 17.16-6.41 19.361-15.064.211.027.42.064.639.064a5 5 0 0 0 5-5 5 5 0 0 0-5-5"></path>
  <path fill="currentColor" d="M83 123h40v-20H83z"></path>
  <path fill="currentColor" d="M133 115.5a2.5 2.5 0 1 0 0-5c-.109 0-.214.019-.319.032q-.028-.113-.058-.225a2.501 2.501 0 0 0-.963-4.807c-.569 0-1.088.197-1.508.518a7 7 0 0 0-.168-.168c.314-.417.506-.931.506-1.494a2.5 2.5 0 0 0-4.8-.979A10 10 0 0 0 123 103c-5.522 0-10 4.478-10 10s4.478 10 10 10c.934 0 1.833-.138 2.69-.377a2.5 2.5 0 0 0 4.8-.979c0-.563-.192-1.077-.506-1.494q.085-.083.168-.168c.42.321.939.518 1.508.518a2.5 2.5 0 0 0 .963-4.807q.03-.112.058-.225c.105.013.21.032.319.032"></path>
</g>

</svg>
